# xmcd CD database file
#
# Track frame offsets:
#	150
#	11775
#	58800
#	92665
#	120190
#
# Disc length: 2264 seconds
#
# Revision: 0
# Processed by: cddbd v1.4PL0 Copyright (c) Steve Scherf et al.
# Submitted via: CDex 1.51
#
DISCID=3608d605
DTITLE=oscar peterson - exclusively for my friend
DYEAR=1900
DGENRE=Jazz
TTITLE0=travelin' onemily
TTITLE1=emily
TTITLE2=quiet nights )corcovado)
TTITLE3=sax no end
TTITLE4=when lights are on
EXTD=
EXTT0=
EXTT1=
EXTT2=
EXTT3=
EXTT4=
PLAYORDER=
